<?xml version="1.0" standalone="no"?><svg xmlns="http://www.w3.org/2000/svg" viewBox="0 0 1440 320"><path fill="#ffffff" fill-opacity="1" d="M0,128L21.8,138.7C43.6,149,87,171,131,192C174.5,213,218,235,262,250.7C305.5,267,349,277,393,261.3C436.4,245,480,203,524,170.7C567.3,139,611,117,655,133.3C698.2,149,742,203,785,224C829.1,245,873,235,916,240C960,245,1004,267,1047,277.3C1090.9,288,1135,288,1178,250.7C1221.8,213,1265,139,1309,101.3C1352.7,64,1396,64,1418,64L1440,64L1440,320L1418.2,320C1396.4,320,1353,320,1309,320C1265.5,320,1222,320,1178,320C1134.5,320,1091,320,1047,320C1003.6,320,960,320,916,320C872.7,320,829,320,785,320C741.8,320,698,320,655,320C610.9,320,567,320,524,320C480,320,436,320,393,320C349.1,320,305,320,262,320C218.2,320,175,320,131,320C87.3,320,44,320,22,320L0,320Z"></path></svg>